<svg width="128" height="128" viewBox="0 0 128 128" fill="none" xmlns="http://www.w3.org/2000/svg">
<g clip-path="url(#clip0_1443_13669)">
<g filter="url(#filter0_di_1443_13669)">
<path d="M30.7441 39.4785C35.6953 39.4785 39.7383 40.7822 42.873 43.3896C46.0371 45.9678 47.6191 50.2598 47.6191 56.2656V88.5215H34.7871V59.3857C34.7871 56.8662 34.4502 54.9326 33.7764 53.585C32.5459 51.124 30.2021 49.8936 26.7451 49.8936C22.4971 49.8936 19.582 51.6953 18 55.2988C17.1797 57.2031 16.7695 59.6348 16.7695 62.5938V88.5215H4.28906V40.709H16.374V47.6963C17.9854 45.2354 19.5088 43.4629 20.9443 42.3789C23.5225 40.4453 26.7891 39.4785 30.7441 39.4785Z" fill="white"/>
<path d="M108.727 39.5664C110.836 39.5664 112.916 39.9766 114.967 40.7969C117.018 41.6172 118.878 43.0527 120.548 45.1035C121.896 46.7734 122.804 48.8242 123.272 51.2559C123.565 52.8672 123.712 55.2256 123.712 58.3311L123.624 88.5215H110.792V58.0234C110.792 56.207 110.499 54.7129 109.913 53.541C108.8 51.3145 106.749 50.2012 103.761 50.2012C100.304 50.2012 97.916 51.6367 96.5977 54.5078C95.9238 56.0312 95.5869 57.8623 95.5869 60.001V88.5215H82.9746V60.001C82.9746 57.1592 82.6816 55.0938 82.0957 53.8047C81.041 51.4902 78.9756 50.333 75.8994 50.333C72.3252 50.333 69.9229 51.4902 68.6924 53.8047C68.0186 55.123 67.6816 57.0859 67.6816 59.6934V88.5215H54.9814V40.709H67.1543V47.6963C68.707 45.2061 70.1719 43.4336 71.5488 42.3789C73.9805 40.5039 77.1299 39.5664 80.9971 39.5664C84.6592 39.5664 87.6182 40.3721 89.874 41.9834C91.6904 43.4775 93.0674 45.3965 94.0049 47.7402C95.6455 44.9277 97.6816 42.8623 100.113 41.5439C102.691 40.2256 105.562 39.5664 108.727 39.5664Z" fill="white"/>
<path d="M122.099 43.8407L122.104 43.8475C123.687 45.8089 124.715 48.174 125.236 50.8773L125.238 50.8877L125.24 50.8981C125.566 52.6896 125.712 55.1918 125.712 58.3311V58.3369L125.624 88.5273L125.618 90.5215H123.624H110.792H108.792V88.5215V58.0234C108.792 56.4044 108.528 55.2436 108.124 54.4354C107.738 53.6628 107.227 53.1417 106.586 52.7938C105.924 52.4347 105.013 52.2012 103.761 52.2012C102.308 52.2012 101.223 52.5014 100.408 52.9919C99.6067 53.4735 98.9349 54.2161 98.4211 55.3296C97.8906 56.5349 97.5869 58.0718 97.5869 60.001V88.5215V90.5215H95.5869H82.9746H80.9746V88.5215V60.001C80.9746 57.2161 80.6751 55.514 80.2758 54.634L122.099 43.8407ZM122.099 43.8407C120.257 41.5783 118.133 39.9091 115.71 38.9399C113.434 38.0296 111.102 37.5664 108.727 37.5664C105.276 37.5664 102.088 38.2877 99.2027 39.7633L99.1812 39.7742L99.16 39.7857C97.2942 40.7973 95.6594 42.1762 94.2466 43.8895C93.3863 42.5862 92.3529 41.4328 91.1446 40.4388L91.0919 40.3955L91.0365 40.3559C88.3475 38.4352 84.9435 37.5664 80.9971 37.5664C76.8057 37.5664 73.1935 38.5862 70.3301 40.7931C69.9361 41.0951 69.5443 41.439 69.1543 41.8223V40.709V38.709H67.1543H54.9814H52.9814V40.709V88.5215V90.5215H54.9814H67.6816H69.6816M122.099 43.8407L69.6816 90.5215M69.6816 90.5215V88.5215M69.6816 90.5215V88.5215M69.6816 88.5215V59.6934C69.6816 57.209 70.0112 55.6288 70.466 54.7292C71.2278 53.309 72.767 52.333 75.8994 52.333C77.1949 52.333 78.1203 52.5772 78.778 52.9457M69.6816 88.5215L78.778 52.9457M78.778 52.9457C79.4111 53.3005 79.9101 53.8325 80.275 54.6323L78.778 52.9457ZM47.6191 90.5215H49.6191V88.5215V56.2656C49.6191 49.9547 47.9558 44.9562 44.1442 41.8455C40.5788 38.8834 36.0547 37.4785 30.7441 37.4785C26.4567 37.4785 22.7412 38.5313 19.7443 40.7789L19.7443 40.7789L19.7391 40.7828C19.2823 41.1278 18.8274 41.5237 18.374 41.9679V40.709V38.709H16.374H4.28906H2.28906V40.709V88.5215V90.5215H4.28906H16.7695H18.7695V88.5215V62.5938C18.7695 59.8032 19.1587 57.6675 19.8341 56.0964C20.4868 54.6125 21.3625 53.6024 22.4243 52.9461C23.4981 52.2825 24.9038 51.8936 26.7451 51.8936C29.6767 51.8936 31.1885 52.8813 31.9875 54.4794C32.459 55.4223 32.7871 56.9939 32.7871 59.3857V88.5215V90.5215H34.7871H47.6191Z" stroke="black" stroke-width="4"/>
</g>
</g>
<defs>
<filter id="filter0_di_1443_13669" x="-3.71094" y="35.4785" width="135.423" height="65.043" filterUnits="userSpaceOnUse" color-interpolation-filters="sRGB">
<feFlood flood-opacity="0" result="BackgroundImageFix"/>
<feColorMatrix in="SourceAlpha" type="matrix" values="0 0 0 0 0 0 0 0 0 0 0 0 0 0 0 0 0 0 127 0" result="hardAlpha"/>
<feOffset dy="4"/>
<feGaussianBlur stdDeviation="2"/>
<feComposite in2="hardAlpha" operator="out"/>
<feColorMatrix type="matrix" values="0 0 0 0 0 0 0 0 0 0 0 0 0 0 0 0 0 0 0.25 0"/>
<feBlend mode="normal" in2="BackgroundImageFix" result="effect1_dropShadow_1443_13669"/>
<feBlend mode="normal" in="SourceGraphic" in2="effect1_dropShadow_1443_13669" result="shape"/>
<feColorMatrix in="SourceAlpha" type="matrix" values="0 0 0 0 0 0 0 0 0 0 0 0 0 0 0 0 0 0 127 0" result="hardAlpha"/>
<feOffset dy="4"/>
<feGaussianBlur stdDeviation="2"/>
<feComposite in2="hardAlpha" operator="arithmetic" k2="-1" k3="1"/>
<feColorMatrix type="matrix" values="0 0 0 0 0.533333 0 0 0 0 0.227451 0 0 0 0 0.917647 0 0 0 0.45 0"/>
<feBlend mode="normal" in2="shape" result="effect2_innerShadow_1443_13669"/>
</filter>
<clipPath id="clip0_1443_13669">
<rect width="128" height="128" fill="white"/>
</clipPath>
</defs>
</svg>
