<svg width="128" height="128" viewBox="0 0 128 128" fill="none" xmlns="http://www.w3.org/2000/svg">
<g filter="url(#filter0_di_1441_13616)">
<mask id="path-1-outside-1_1441_13616" maskUnits="userSpaceOnUse" x="18" y="14" width="91" height="100" fill="black">
<rect fill="white" x="18" y="14" width="91" height="100"/>
<path d="M71.1802 24.9863C79.1571 24.9863 85.6707 27.0868 90.7212 31.2876C95.8188 35.4412 98.3677 42.3561 98.3677 52.0322V104H77.6938V57.0591C77.6938 52.9998 77.151 49.8846 76.0654 47.7134C74.083 43.7485 70.307 41.7661 64.7373 41.7661C57.8932 41.7661 53.1968 44.6689 50.6479 50.4746C49.3263 53.5426 48.6655 57.4603 48.6655 62.2275V104H28.5581V26.9688H48.0283V38.2261C50.6243 34.2612 53.0788 31.4056 55.3916 29.6592C59.5452 26.5439 64.8081 24.9863 71.1802 24.9863Z"/>
</mask>
<path d="M71.1802 24.9863C79.1571 24.9863 85.6707 27.0868 90.7212 31.2876C95.8188 35.4412 98.3677 42.3561 98.3677 52.0322V104H77.6938V57.0591C77.6938 52.9998 77.151 49.8846 76.0654 47.7134C74.083 43.7485 70.307 41.7661 64.7373 41.7661C57.8932 41.7661 53.1968 44.6689 50.6479 50.4746C49.3263 53.5426 48.6655 57.4603 48.6655 62.2275V104H28.5581V26.9688H48.0283V38.2261C50.6243 34.2612 53.0788 31.4056 55.3916 29.6592C59.5452 26.5439 64.8081 24.9863 71.1802 24.9863Z" fill="white"/>
<path d="M90.7212 31.2876L84.3264 38.9757L84.3653 39.008L84.4045 39.0399L90.7212 31.2876ZM98.3677 104V114H108.368V104H98.3677ZM77.6938 104H67.6938V114H77.6938V104ZM76.0654 47.7134L67.1212 52.1855L76.0654 47.7134ZM50.6479 50.4746L41.4915 46.4547L41.4776 46.4865L41.4638 46.5184L50.6479 50.4746ZM48.6655 104V114H58.6655V104H48.6655ZM28.5581 104H18.5581V114H28.5581V104ZM28.5581 26.9688V16.9688H18.5581V26.9688H28.5581ZM48.0283 26.9688H58.0283V16.9688H48.0283V26.9688ZM48.0283 38.2261H38.0283V71.7541L56.3945 43.7039L48.0283 38.2261ZM55.3916 29.6592L49.3916 21.6592L49.3786 21.669L49.3656 21.6788L55.3916 29.6592ZM71.1802 34.9863C77.3406 34.9863 81.4348 36.5705 84.3264 38.9757L97.116 23.5995C89.9067 17.603 80.9735 14.9863 71.1802 14.9863V34.9863ZM84.4045 39.0399C86.2367 40.5329 88.3677 43.9031 88.3677 52.0322H108.368C108.368 40.8091 105.401 30.3496 97.0379 23.5352L84.4045 39.0399ZM88.3677 52.0322V104H108.368V52.0322H88.3677ZM98.3677 94H77.6938V114H98.3677V94ZM87.6938 104V57.0591H67.6938V104H87.6938ZM87.6938 57.0591C87.6938 52.3615 87.1071 47.4361 85.0097 43.2412L67.1212 52.1855C67.1207 52.1846 67.2832 52.5223 67.4352 53.3948C67.5847 54.2527 67.6938 55.4522 67.6938 57.0591H87.6938ZM85.0097 43.2412C80.8701 34.962 72.9341 31.7661 64.7373 31.7661V51.7661C66.3815 51.7661 67.0152 52.0633 67.0982 52.1069C67.1304 52.1238 67.0998 52.1106 67.0581 52.0676C67.0192 52.0274 67.0497 52.0425 67.1212 52.1855L85.0097 43.2412ZM64.7373 31.7661C59.9016 31.7661 55.0914 32.7995 50.8243 35.4369C46.5052 38.1065 43.4559 41.9802 41.4915 46.4547L59.8044 54.4945C60.3888 53.1634 60.9621 52.6828 61.3396 52.4495C61.7689 52.1842 62.7289 51.7661 64.7373 51.7661V31.7661ZM41.4638 46.5184C39.4258 51.2495 38.6655 56.6369 38.6655 62.2275H58.6655C58.6655 58.2837 59.2269 55.8358 59.8321 54.4308L41.4638 46.5184ZM38.6655 62.2275V104H58.6655V62.2275H38.6655ZM48.6655 94H28.5581V114H48.6655V94ZM38.5581 104V26.9688H18.5581V104H38.5581ZM28.5581 36.9688H48.0283V16.9688H28.5581V36.9688ZM38.0283 26.9688V38.2261H58.0283V26.9688H38.0283ZM56.3945 43.7039C58.7081 40.1704 60.4208 38.3923 61.4176 37.6396L49.3656 21.6788C45.7367 24.4189 42.5406 28.3521 39.6621 32.7482L56.3945 43.7039ZM61.3916 37.6592C63.4516 36.1142 66.4697 34.9863 71.1802 34.9863V14.9863C63.1465 14.9863 55.6389 16.9737 49.3916 21.6592L61.3916 37.6592Z" fill="url(#paint0_linear_1441_13616)" mask="url(#path-1-outside-1_1441_13616)"/>
</g>
<defs>
<filter id="filter0_di_1441_13616" x="24.5586" y="23.7739" width="77.8086" height="87.2261" filterUnits="userSpaceOnUse" color-interpolation-filters="sRGB">
<feFlood flood-opacity="0" result="BackgroundImageFix"/>
<feColorMatrix in="SourceAlpha" type="matrix" values="0 0 0 0 0 0 0 0 0 0 0 0 0 0 0 0 0 0 127 0" result="hardAlpha"/>
<feOffset dy="3"/>
<feGaussianBlur stdDeviation="2"/>
<feComposite in2="hardAlpha" operator="out"/>
<feColorMatrix type="matrix" values="0 0 0 0 0 0 0 0 0 0 0 0 0 0 0 0 0 0 0.25 0"/>
<feBlend mode="normal" in2="BackgroundImageFix" result="effect1_dropShadow_1441_13616"/>
<feBlend mode="normal" in="SourceGraphic" in2="effect1_dropShadow_1441_13616" result="shape"/>
<feColorMatrix in="SourceAlpha" type="matrix" values="0 0 0 0 0 0 0 0 0 0 0 0 0 0 0 0 0 0 127 0" result="hardAlpha"/>
<feOffset dy="4"/>
<feGaussianBlur stdDeviation="2"/>
<feComposite in2="hardAlpha" operator="arithmetic" k2="-1" k3="1"/>
<feColorMatrix type="matrix" values="0 0 0 0 0.533333 0 0 0 0 0.227451 0 0 0 0 0.917647 0 0 0 0.45 0"/>
<feBlend mode="normal" in2="shape" result="effect2_innerShadow_1441_13616"/>
</filter>
<linearGradient id="paint0_linear_1441_13616" x1="77.295" y1="35.88" x2="45.4422" y2="63.1387" gradientUnits="userSpaceOnUse">
<stop stop-color="#883AEA"/>
<stop offset="1"/>
</linearGradient>
</defs>
</svg>
