<svg width="128" height="128" viewBox="0 0 128 128" fill="none" xmlns="http://www.w3.org/2000/svg">
<g clip-path="url(#clip0_1441_13611)">
<g filter="url(#filter0_di_1441_13611)">
<path d="M19.002 48.1973C22.1927 48.1973 24.7982 49.0374 26.8184 50.7178C28.8574 52.3792 29.877 55.1452 29.877 59.0156V79.8027H21.6074V61.0264C21.6074 59.4027 21.3903 58.1566 20.9561 57.2881C20.1631 55.7021 18.6527 54.9092 16.4248 54.9092C13.6872 54.9092 11.8086 56.0703 10.7891 58.3926C10.2604 59.6198 9.99609 61.1868 9.99609 63.0938V79.8027H1.95312V48.9902H9.74121V53.4932C10.7796 51.9072 11.7614 50.765 12.6865 50.0664C14.348 48.8203 16.4531 48.1973 19.002 48.1973Z" fill="white"/>
<path d="M68.3906 48.2539C69.75 48.2539 71.0905 48.5182 72.4121 49.0469C73.7337 49.5755 74.9326 50.5007 76.0088 51.8223C76.8773 52.8984 77.4626 54.2201 77.7646 55.7871C77.9535 56.8255 78.0479 58.3454 78.0479 60.3467L77.9912 79.8027H69.7217V60.1484C69.7217 58.9779 69.5329 58.015 69.1553 57.2598C68.4378 55.8249 67.1162 55.1074 65.1904 55.1074C62.9626 55.1074 61.4238 56.0326 60.5742 57.8828C60.14 58.8646 59.9229 60.0446 59.9229 61.4229V79.8027H51.7949V61.4229C51.7949 59.5915 51.6061 58.2604 51.2285 57.4297C50.5488 55.9382 49.2178 55.1924 47.2354 55.1924C44.932 55.1924 43.3838 55.9382 42.5908 57.4297C42.1566 58.2793 41.9395 59.5443 41.9395 61.2246V79.8027H33.7549V48.9902H41.5996V53.4932C42.6003 51.8883 43.5443 50.7461 44.4316 50.0664C45.9987 48.8581 48.0283 48.2539 50.5205 48.2539C52.8805 48.2539 54.7874 48.7731 56.2412 49.8115C57.4118 50.7744 58.2992 52.0111 58.9033 53.5215C59.9606 51.709 61.2728 50.3779 62.8398 49.5283C64.5013 48.6787 66.3516 48.2539 68.3906 48.2539Z" fill="white"/>
<path d="M116.391 48.2539C117.75 48.2539 119.09 48.5182 120.412 49.0469C121.734 49.5755 122.933 50.5007 124.009 51.8223C124.877 52.8984 125.463 54.2201 125.765 55.7871C125.953 56.8255 126.048 58.3454 126.048 60.3467L125.991 79.8027H117.722V60.1484C117.722 58.9779 117.533 58.015 117.155 57.2598C116.438 55.8249 115.116 55.1074 113.19 55.1074C110.963 55.1074 109.424 56.0326 108.574 57.8828C108.14 58.8646 107.923 60.0446 107.923 61.4229V79.8027H99.7949V61.4229C99.7949 59.5915 99.6061 58.2604 99.2285 57.4297C98.5488 55.9382 97.2178 55.1924 95.2354 55.1924C92.932 55.1924 91.3838 55.9382 90.5908 57.4297C90.1566 58.2793 89.9395 59.5443 89.9395 61.2246V79.8027H81.7549V48.9902H89.5996V53.4932C90.6003 51.8883 91.5443 50.7461 92.4316 50.0664C93.9987 48.8581 96.0283 48.2539 98.5205 48.2539C100.881 48.2539 102.787 48.7731 104.241 49.8115C105.412 50.7744 106.299 52.0111 106.903 53.5215C107.961 51.709 109.273 50.3779 110.84 49.5283C112.501 48.6787 114.352 48.2539 116.391 48.2539Z" fill="white"/>
<path d="M76.7842 51.1908L76.787 51.1942C77.7731 52.4162 78.4183 53.895 78.7466 55.5978L78.7486 55.6082C78.9537 56.7367 79.0479 58.3285 79.0479 60.3467V60.3496L78.9912 79.8056L78.9883 80.8027H77.9912H69.7217H68.7217V79.8027V60.1484C68.7217 59.0766 68.5475 58.2803 68.2608 57.707C67.9873 57.1598 67.6174 56.7787 67.1489 56.5244C66.67 56.2644 66.0323 56.1074 65.1904 56.1074C64.2146 56.1074 63.4611 56.3094 62.8807 56.6583C62.3078 57.0027 61.8381 57.5295 61.4859 58.2937C61.1234 59.1164 60.9229 60.1492 60.9229 61.4229V79.8027V80.8027H59.9229H51.7949H50.7949V79.8027V61.4229C50.7949 59.6199 50.6028 58.4705 50.3185 57.8444L76.7842 51.1908ZM76.7842 51.1908C75.6219 49.7635 74.2913 48.7215 72.7835 48.1184C71.3494 47.5448 69.8832 47.2539 68.3906 47.2539C66.2082 47.2539 64.1997 47.7098 62.3846 48.638L62.3738 48.6435L62.3632 48.6492C61.0859 49.3417 59.9775 50.3116 59.0319 51.5373M76.7842 51.1908L59.0319 51.5373M59.0319 51.5373C58.4526 50.5801 57.7346 49.7451 56.8765 49.0392L56.8502 49.0176L56.8224 48.9978C55.1521 47.8047 53.0227 47.2539 50.5205 47.2539C47.8662 47.2539 45.6052 47.8992 43.8222 49.2735C43.4139 49.5865 43.0066 49.9743 42.5996 50.4314V48.9902V47.9902H41.5996H33.7549H32.7549V48.9902V79.8027V80.8027H33.7549H41.9395H42.9395V79.8027V61.2246C42.9395 59.6053 43.1531 58.5318 43.4776 57.892C44.0362 56.8478 45.1523 56.1924 47.2354 56.1924C48.1052 56.1924 48.7536 56.3563 49.2317 56.6241C49.6974 56.885 50.0596 57.2764 50.3181 57.8435L59.0319 51.5373ZM91.8222 49.2736C91.4138 49.5865 91.0066 49.9743 90.5996 50.4314V48.9902V47.9902H89.5996H81.7549H80.7549V48.9902V79.8027V80.8027H81.7549H89.9395H90.9395V79.8027V61.2246C90.9395 59.6053 91.1531 58.5318 91.4776 57.892C92.0362 56.8478 93.1523 56.1924 95.2354 56.1924C96.1052 56.1924 96.7536 56.3563 97.2317 56.6241C97.6974 56.885 98.0595 57.2764 98.3181 57.8435C98.6027 58.4694 98.7949 59.619 98.7949 61.4229V79.8027V80.8027H99.7949H107.923H108.923V79.8027V61.4229C108.923 60.1493 109.123 59.1165 109.486 58.2939C109.838 57.5296 110.308 57.0028 110.881 56.6583C111.461 56.3094 112.215 56.1074 113.19 56.1074C114.032 56.1074 114.67 56.2644 115.149 56.5244C115.617 56.7787 115.987 57.1598 116.261 57.707C116.548 58.2803 116.722 59.0766 116.722 60.1484V79.8027V80.8027H117.722H125.991H126.988L126.991 79.8056L127.048 60.3496V60.3467C127.048 58.3285 126.954 56.7367 126.749 55.6082L126.747 55.5978C126.418 53.895 125.773 52.4162 124.787 51.1942L124.784 51.1908C123.622 49.7635 122.291 48.7215 120.784 48.1184C119.349 47.5448 117.883 47.2539 116.391 47.2539C114.208 47.2539 112.2 47.7098 110.385 48.638L110.374 48.6435L110.363 48.6492C109.086 49.3417 107.977 50.3116 107.032 51.5373C106.453 50.5801 105.735 49.7451 104.876 49.0392L104.85 49.0176L104.822 48.9978C103.152 47.8047 101.023 47.2539 98.5205 47.2539C95.8662 47.2539 93.6051 47.8993 91.8222 49.2736ZM91.8222 49.2736C91.8227 49.2732 91.8231 49.2729 91.8236 49.2725L92.4316 50.0664L91.821 49.2745C91.8214 49.2742 91.8218 49.2739 91.8222 49.2736ZM29.877 80.8027H30.877V79.8027V59.0156C30.877 54.9927 29.8168 51.8735 27.4539 49.9457C25.2184 48.088 22.3724 47.1973 19.002 47.1973C16.287 47.1973 13.9573 47.8633 12.0865 49.2664L12.0839 49.2684C11.6365 49.6062 11.1892 50.0251 10.7412 50.5195V48.9902V47.9902H9.74121H1.95312H0.953125V48.9902V79.8027V80.8027H1.95312H9.99609H10.9961V79.8027V63.0938C10.9961 61.271 11.25 59.8519 11.7061 58.7914C12.1467 57.7891 12.747 57.0889 13.4884 56.6307C14.2358 56.1687 15.1974 55.9092 16.4248 55.9092C18.39 55.9092 19.4844 56.5808 20.0616 57.7353C20.3947 58.4014 20.6074 59.4665 20.6074 61.0264V79.8027V80.8027H21.6074H29.877Z" stroke="url(#paint0_linear_1441_13611)" stroke-width="2"/>
</g>
</g>
<defs>
<filter id="filter0_di_1441_13611" x="-4.04688" y="46.1973" width="136.095" height="43.6055" filterUnits="userSpaceOnUse" color-interpolation-filters="sRGB">
<feFlood flood-opacity="0" result="BackgroundImageFix"/>
<feColorMatrix in="SourceAlpha" type="matrix" values="0 0 0 0 0 0 0 0 0 0 0 0 0 0 0 0 0 0 127 0" result="hardAlpha"/>
<feOffset dy="4"/>
<feGaussianBlur stdDeviation="2"/>
<feComposite in2="hardAlpha" operator="out"/>
<feColorMatrix type="matrix" values="0 0 0 0 0 0 0 0 0 0 0 0 0 0 0 0 0 0 0.25 0"/>
<feBlend mode="normal" in2="BackgroundImageFix" result="effect1_dropShadow_1441_13611"/>
<feBlend mode="normal" in="SourceGraphic" in2="effect1_dropShadow_1441_13611" result="shape"/>
<feColorMatrix in="SourceAlpha" type="matrix" values="0 0 0 0 0 0 0 0 0 0 0 0 0 0 0 0 0 0 127 0" result="hardAlpha"/>
<feOffset dy="4"/>
<feGaussianBlur stdDeviation="2"/>
<feComposite in2="hardAlpha" operator="arithmetic" k2="-1" k3="1"/>
<feColorMatrix type="matrix" values="0 0 0 0 0.533333 0 0 0 0 0.227451 0 0 0 0 0.917647 0 0 0 0.45 0"/>
<feBlend mode="normal" in2="shape" result="effect2_innerShadow_1441_13611"/>
</filter>
<linearGradient id="paint0_linear_1441_13611" x1="83.2352" y1="59.1012" x2="78.5485" y2="77.5029" gradientUnits="userSpaceOnUse">
<stop stop-color="#883AEA"/>
<stop offset="1"/>
</linearGradient>
<clipPath id="clip0_1441_13611">
<rect width="128" height="128" fill="white"/>
</clipPath>
</defs>
</svg>
