<svg xmlns="http://www.w3.org/2000/svg" viewBox="0 0 88.61 99.64" height="26" data-v-8d364b22="">
    <title data-v-8d364b22="">ReelCrafter</title>
    <g id="Layer_2" data-name="Layer 2" data-v-8d364b22="">
        <g id="Layer_1-2" data-name="Layer 1" data-v-8d364b22="">
            <path fill="#ffffffff"
                d="M57.86,65.5a1.57,1.57,0,0,1-.32-3.11,32.39,32.39,0,0,0,11-4.24,24.19,24.19,0,0,0,7-6.69A26.67,26.67,0,0,0,79.47,43a35.58,35.58,0,0,0,1.19-9.42A31.25,31.25,0,0,0,78.54,22.1a28.58,28.58,0,0,0-6.26-9.66A30,30,0,0,0,62,5.73,39.85,39.85,0,0,0,47.52,3.14c-7.61.07-15.26.07-22.9,0l-21.35,0V63.92a1.57,1.57,0,0,1-3.14,0V1.57A1.57,1.57,0,0,1,.59.46,1.61,1.61,0,0,1,1.7,0h0L24.62.05c7.64,0,15.27,0,22.91,0a43,43,0,0,1,15.6,2.82,33,33,0,0,1,11.39,7.43A31.55,31.55,0,0,1,81.46,21,34.4,34.4,0,0,1,83.8,33.57,39.21,39.21,0,0,1,82.5,43.8a30,30,0,0,1-4.3,9.42,27.36,27.36,0,0,1-8,7.58,35.53,35.53,0,0,1-12.06,4.66A1.24,1.24,0,0,1,57.86,65.5Z"
                data-v-8d364b22=""></path>
            <path fill="#ffffffff"
                d="M87,99.64H1.7a1.57,1.57,0,0,1-1.11-.46,1.61,1.61,0,0,1-.46-1.11V63.93A1.57,1.57,0,0,1,1.7,62.36h0a1.57,1.57,0,0,1,1.57,1.57V96.5H83.64L56.67,65a1.57,1.57,0,0,1,2.38-2L88.24,97.05a1.6,1.6,0,0,1,.23,1.68A1.58,1.58,0,0,1,87,99.64Z"
                data-v-8d364b22=""></path>
            <path fill="#ffffffff"
                d="M57.71,65.68a1.57,1.57,0,0,1-.29-3.11,21.57,21.57,0,0,0,8.23-3.27,17,17,0,0,0,5.08-5.42,21.38,21.38,0,0,0,2.59-7.06,31.55,31.55,0,0,0,.46-8A32.25,32.25,0,0,0,71,28.66a29.67,29.67,0,0,0-6.12-8.72,28.66,28.66,0,0,0-9.44-6.09,33.49,33.49,0,0,0-12.88-2.31c-8,.08-14.22.21-20.1.42q-9.12.1-18.2.31Q3.73,37.86,3.14,63.55a1.67,1.67,0,0,1-1.61,1.54A1.57,1.57,0,0,1,0,63.48Q.6,37,1.18,10.7A1.56,1.56,0,0,1,2.71,9.17q9.85-.24,19.7-.35c5.86-.2,12.09-.33,20.16-.42a36.48,36.48,0,0,1,14.07,2.54A31.75,31.75,0,0,1,67.1,17.71a32.49,32.49,0,0,1,6.77,9.64,35,35,0,0,1,3,11.17,35.11,35.11,0,0,1-.49,8.86,25,25,0,0,1-3,8.07,20.13,20.13,0,0,1-6,6.43A24.71,24.71,0,0,1,58,65.65,1.84,1.84,0,0,1,57.71,65.68Z"
                data-v-8d364b22=""></path>
            <path fill="#ffffffff"
                d="M78.77,94h0q-20.1-.5-40.1-1.09Q22,92.47,5.46,92a1.57,1.57,0,0,1-1.52-1.38l-.32-2.72C2.54,78.78,1.52,70.14,0,63.88a1.57,1.57,0,0,1,3.06-.72c1.52,6.43,2.55,15.16,3.63,24.4l.17,1.37q15.9.42,31.84.88,18.34.52,36.78,1C68.14,81.29,62,73,56.44,65A1.57,1.57,0,1,1,59,63.22c6.07,8.69,12.75,17.68,21,28.29A1.57,1.57,0,0,1,78.77,94Z"
                data-v-8d364b22=""></path>
            <path fill="#ffffffff"
                d="M57.86,65.49a1.57,1.57,0,0,1-.32-3.1A11.72,11.72,0,0,0,62.86,60a10.77,10.77,0,0,0,3-4.22A17.38,17.38,0,0,0,67.09,50a29.15,29.15,0,0,0-.44-6.66A35.92,35.92,0,0,0,63,34.6a31.38,31.38,0,0,0-6.16-7.66,27,27,0,0,0-8.69-5.28A29.78,29.78,0,0,0,36.82,19.9c-6.23.23-11.89.62-17.27,1.2-5.19.3-10.23.65-15.07,1Q3.89,42.94,3.27,64a1.54,1.54,0,0,1-1.61,1.52A1.57,1.57,0,0,1,.13,63.88Q.79,42.15,1.38,20.66a1.57,1.57,0,0,1,1.43-1.52c5.3-.45,10.84-.84,16.48-1.16,5.38-.58,11.11-1,17.43-1.21a32.15,32.15,0,0,1,12.58,2A30.28,30.28,0,0,1,59,24.61,34.57,34.57,0,0,1,65.75,33a38.71,38.71,0,0,1,4,9.63,33,33,0,0,1,.52,7.49,20.75,20.75,0,0,1-1.43,6.76,13.84,13.84,0,0,1-3.91,5.44,15,15,0,0,1-6.7,3.11A1.84,1.84,0,0,1,57.86,65.49Z"
                data-v-8d364b22=""></path>
            <path fill="#ffffffff"
                d="M71.4,87.63h-.05c-11.47-.39-22.86-.88-34.2-1.37-9-.38-18.08-.77-27.08-1.1A1.57,1.57,0,0,1,8.62,84C6.11,75.4,3.78,67.38.78,65.2a1.57,1.57,0,1,1,1.85-2.54c3.73,2.71,6.06,10.39,8.69,19.4q12.95.5,26,1.07c10.3.44,20.65.88,31.05,1.25A179.87,179.87,0,0,1,56.47,64.65a1.57,1.57,0,1,1,2.79-1.43A183.58,183.58,0,0,0,72.69,85.16a1.57,1.57,0,0,1-1.29,2.47Z"
                data-v-8d364b22=""></path>
            <path fill="#ffffffff"
                d="M57.86,65.49a1.57,1.57,0,0,1-.33-3.1A3.85,3.85,0,0,0,59.88,61,6.08,6.08,0,0,0,61,58.11a16.13,16.13,0,0,0-.07-4.48,30.84,30.84,0,0,0-1.26-5.34,49.54,49.54,0,0,0-4.37-7.42,35.83,35.83,0,0,0-6.13-6.68,26,26,0,0,0-7.88-4.56,24.25,24.25,0,0,0-9.82-1.34,107.68,107.68,0,0,0-14.42,1.76q-6.19.69-12,1.57Q4.2,47.66,3.27,64a1.52,1.52,0,0,1-1.66,1.48A1.56,1.56,0,0,1,.14,63.84q1-17,1.86-33.66a1.56,1.56,0,0,1,1.32-1.46C7.63,28,12.09,27.44,16.59,27a109.17,109.17,0,0,1,14.71-1.8,27.55,27.55,0,0,1,11.08,1.53,29.41,29.41,0,0,1,8.82,5.1,38.82,38.82,0,0,1,6.66,7.27,51.77,51.77,0,0,1,4.73,8.09,34,34,0,0,1,1.46,6,19.26,19.26,0,0,1,.06,5.35A9.08,9.08,0,0,1,62.35,63a7,7,0,0,1-4.16,2.49A1.84,1.84,0,0,1,57.86,65.49Z"
                data-v-8d364b22=""></path>
            <path fill="#ffffffff"
                d="M63.58,81.63h-.1c-9.46-.6-18.9-1.35-28-2.08-7.11-.57-14.17-1.13-21.21-1.62a1.59,1.59,0,0,1-1.3-.87C9.08,69.33,6.05,64,2.25,65.4a1.57,1.57,0,1,1-1.1-2.94C7.67,60,11.76,67.7,15.34,74.85c6.76.48,13.53,1,20.35,1.56,8.25.66,16.76,1.34,25.29,1.91a63.82,63.82,0,0,1-4.65-14.07,1.57,1.57,0,0,1,3.07-.64A60.7,60.7,0,0,0,65,79.34a1.58,1.58,0,0,1-1.4,2.29Z"
                data-v-8d364b22=""></path>
            <path fill="#ffffffff"
                d="M57.86,65.49a1.57,1.57,0,0,1-1.1-2.69,8,8,0,0,0-.47-2,33,33,0,0,0-1.38-3.41c-.59-1.28-1.29-2.62-2.06-4-1.48-1.89-3.25-4.09-5.23-6.27a45.35,45.35,0,0,0-6.12-5.71,24.93,24.93,0,0,0-7.07-3.85,19.56,19.56,0,0,0-8.27-.94A53.06,53.06,0,0,0,14.62,39c-3.09.61-6.07,1.3-9,2.09q-1.14,11.3-2.38,23a1.59,1.59,0,0,1-1.72,1.4,1.59,1.59,0,0,1-1.4-1.73q1.29-12.3,2.49-24.09a1.56,1.56,0,0,1,1.14-1.35c3.32-.93,6.71-1.73,10.07-2.38a54.81,54.81,0,0,1,12-2.4,22.77,22.77,0,0,1,9.58,1.09A28.27,28.27,0,0,1,43.4,39a47.84,47.84,0,0,1,6.54,6.1c2.09,2.29,3.93,4.59,5.45,6.53a2.14,2.14,0,0,1,.13.19c.84,1.48,1.59,2.94,2.23,4.32a36.29,36.29,0,0,1,1.52,3.73,11.6,11.6,0,0,1,.65,3,2.36,2.36,0,0,1-1.69,2.68A1.55,1.55,0,0,1,57.86,65.49Zm-.37-3.09Z"
                data-v-8d364b22=""></path>
            <path fill="#ffffffff"
                d="M55.76,75.62h-.17c-7.47-.82-14.83-1.86-22-2.87C28.5,72,23.42,71.3,18.36,70.67a1.57,1.57,0,0,1-1.05-.6c-2.86-3.68-5.92-7.3-9-7.56-1.7-.15-3.5.7-5.52,2.57a1.57,1.57,0,1,1-2.13-2.3c2.7-2.5,5.29-3.61,7.91-3.39,4.2.34,7.54,4,10.84,8.24,4.86.62,9.75,1.31,14.69,2,6.58.93,13.36,1.89,20.23,2.67a50.09,50.09,0,0,1,2-8.84,1.57,1.57,0,0,1,3,.92,38.74,38.74,0,0,0-2,9.71,1.6,1.6,0,0,1-.54,1.14A1.56,1.56,0,0,1,55.76,75.62Z"
                data-v-8d364b22=""></path>
            <path fill="#ffffffff"
                d="M57.19,65.56a6.45,6.45,0,0,1-2.14-.4,13,13,0,0,1-2.94-1.55,32.9,32.9,0,0,1-3-2.34c-1-.88-2-1.83-3.08-2.84-1.62-1.23-3.36-2.7-5-4.11l-1-.87a71.11,71.11,0,0,0-6.13-4.73,24.22,24.22,0,0,0-6.27-3.15A14.73,14.73,0,0,0,20.86,45a27.33,27.33,0,0,0-8.63,2.8,58.83,58.83,0,0,0-6,2.63Q4.77,57.08,3.24,64.25A1.57,1.57,0,1,1,.17,63.6Q1.79,56,3.28,49.07A1.58,1.58,0,0,1,4.09,48,59.4,59.4,0,0,1,11,45a29.37,29.37,0,0,1,9.42-3,17.62,17.62,0,0,1,8.11.64,27.86,27.86,0,0,1,7.08,3.54A77.56,77.56,0,0,1,42,51l1,.88c1.66,1.39,3.38,2.83,5.07,4.13,1.15,1.09,2.14,2,3.11,2.86A30,30,0,0,0,53.88,61,10.35,10.35,0,0,0,56.1,62.2a2.64,2.64,0,0,0,1.47.18,1.57,1.57,0,0,1,.59,3.09A5.23,5.23,0,0,1,57.19,65.56Z"
                data-v-8d364b22=""></path>
            <path fill="#ffffffff"
                d="M47.94,69.62a1.63,1.63,0,0,1-.31,0c-5.48-1.09-10.72-2.47-15.78-3.8-3.2-.84-6.33-1.66-9.44-2.39a1.53,1.53,0,0,1-.67-.34c-3.57-3.06-6.6-5-9.69-4.74-2.81.27-5.8,2.42-9.12,6.59a1.57,1.57,0,0,1-2.21.25A1.58,1.58,0,0,1,.48,63c3.88-4.87,7.57-7.4,11.28-7.76,4.52-.4,8.43,2.43,11.73,5.24,3,.72,6.06,1.51,9.15,2.33,5,1.3,10.09,2.65,15.41,3.71,2.75-.19,5.58-1.41,8.89-3.81a1.57,1.57,0,0,1,1.84,2.54C54.89,68,51.47,69.43,48,69.62Z"
                data-v-8d364b22=""></path>
            <path fill="#ffffffff"
                d="M51.88,66.11c-9.24,0-16.17-4.28-22-7.86C20.4,52.35,14.1,48.45,3,64.81A1.57,1.57,0,1,1,.4,63.05C13.19,44.2,22.13,49.73,31.59,55.58c6.88,4.26,14.68,9.1,26,6.81a1.57,1.57,0,1,1,.62,3.08A31.44,31.44,0,0,1,51.88,66.11Z"
                data-v-8d364b22=""></path>
        </g>
    </g>
</svg>